<?xml version="1.0" encoding="UTF-8" standalone="no"?>
<svg xmlns="http://www.w3.org/2000/svg" viewBox="0 0 600 700" width="600" height="700">
  <path id="Ariyalur" d="M50,50 h40 v40 h-40 Z" fill="#ccc" stroke="#333" stroke-width="1"/>
<path id="Chengalpattu" d="M110,50 h40 v40 h-40 Z" fill="#ccc" stroke="#333" stroke-width="1"/>
<path id="Chennai" d="M170,50 h40 v40 h-40 Z" fill="#ccc" stroke="#333" stroke-width="1"/>
<path id="Coimbatore" d="M230,50 h40 v40 h-40 Z" fill="#ccc" stroke="#333" stroke-width="1"/>
<path id="Cuddalore" d="M290,50 h40 v40 h-40 Z" fill="#ccc" stroke="#333" stroke-width="1"/>
<path id="Dharmapuri" d="M350,50 h40 v40 h-40 Z" fill="#ccc" stroke="#333" stroke-width="1"/>
<path id="Dindigul" d="M50,110 h40 v40 h-40 Z" fill="#ccc" stroke="#333" stroke-width="1"/>
<path id="Erode" d="M110,110 h40 v40 h-40 Z" fill="#ccc" stroke="#333" stroke-width="1"/>
<path id="Kallakurichi" d="M170,110 h40 v40 h-40 Z" fill="#ccc" stroke="#333" stroke-width="1"/>
<path id="Kanchipuram" d="M230,110 h40 v40 h-40 Z" fill="#ccc" stroke="#333" stroke-width="1"/>
<path id="Kanniyakumari" d="M290,110 h40 v40 h-40 Z" fill="#ccc" stroke="#333" stroke-width="1"/>
<path id="Karur" d="M350,110 h40 v40 h-40 Z" fill="#ccc" stroke="#333" stroke-width="1"/>
<path id="Krishnagiri" d="M50,170 h40 v40 h-40 Z" fill="#ccc" stroke="#333" stroke-width="1"/>
<path id="Madurai" d="M110,170 h40 v40 h-40 Z" fill="#ccc" stroke="#333" stroke-width="1"/>
<path id="Mayiladuthurai" d="M170,170 h40 v40 h-40 Z" fill="#ccc" stroke="#333" stroke-width="1"/>
<path id="Nagapattinam" d="M230,170 h40 v40 h-40 Z" fill="#ccc" stroke="#333" stroke-width="1"/>
<path id="Namakkal" d="M290,170 h40 v40 h-40 Z" fill="#ccc" stroke="#333" stroke-width="1"/>
<path id="Nilgiris" d="M350,170 h40 v40 h-40 Z" fill="#ccc" stroke="#333" stroke-width="1"/>
<path id="Perambalur" d="M50,230 h40 v40 h-40 Z" fill="#ccc" stroke="#333" stroke-width="1"/>
<path id="Pudukkottai" d="M110,230 h40 v40 h-40 Z" fill="#ccc" stroke="#333" stroke-width="1"/>
<path id="Ramanathapuram" d="M170,230 h40 v40 h-40 Z" fill="#ccc" stroke="#333" stroke-width="1"/>
<path id="Ranipet" d="M230,230 h40 v40 h-40 Z" fill="#ccc" stroke="#333" stroke-width="1"/>
<path id="Salem" d="M290,230 h40 v40 h-40 Z" fill="#ccc" stroke="#333" stroke-width="1"/>
<path id="Sivaganga" d="M350,230 h40 v40 h-40 Z" fill="#ccc" stroke="#333" stroke-width="1"/>
<path id="Tenkasi" d="M50,290 h40 v40 h-40 Z" fill="#ccc" stroke="#333" stroke-width="1"/>
<path id="Thanjavur" d="M110,290 h40 v40 h-40 Z" fill="#ccc" stroke="#333" stroke-width="1"/>
<path id="Theni" d="M170,290 h40 v40 h-40 Z" fill="#ccc" stroke="#333" stroke-width="1"/>
<path id="Thoothukudi" d="M230,290 h40 v40 h-40 Z" fill="#ccc" stroke="#333" stroke-width="1"/>
<path id="Tiruchirappalli" d="M290,290 h40 v40 h-40 Z" fill="#ccc" stroke="#333" stroke-width="1"/>
<path id="Tirunelveli" d="M350,290 h40 v40 h-40 Z" fill="#ccc" stroke="#333" stroke-width="1"/>
<path id="Tirupathur" d="M50,350 h40 v40 h-40 Z" fill="#ccc" stroke="#333" stroke-width="1"/>
<path id="Tiruppur" d="M110,350 h40 v40 h-40 Z" fill="#ccc" stroke="#333" stroke-width="1"/>
<path id="Tiruvallur" d="M170,350 h40 v40 h-40 Z" fill="#ccc" stroke="#333" stroke-width="1"/>
<path id="Tiruvannamalai" d="M230,350 h40 v40 h-40 Z" fill="#ccc" stroke="#333" stroke-width="1"/>
<path id="Tiruvarur" d="M290,350 h40 v40 h-40 Z" fill="#ccc" stroke="#333" stroke-width="1"/>
<path id="Vellore" d="M350,350 h40 v40 h-40 Z" fill="#ccc" stroke="#333" stroke-width="1"/>
<path id="Viluppuram" d="M50,410 h40 v40 h-40 Z" fill="#ccc" stroke="#333" stroke-width="1"/>
<path id="Virudhunagar" d="M110,410 h40 v40 h-40 Z" fill="#ccc" stroke="#333" stroke-width="1"/>

</svg>
